<?xml version="1.0" encoding="UTF-8" standalone="no"?><!DOCTYPE svg PUBLIC "-//W3C//DTD SVG 1.1//EN" "http://www.w3.org/Graphics/SVG/1.1/DTD/svg11.dtd"><svg width="100%" height="100%" viewBox="0 0 276 257" version="1.1" xmlns="http://www.w3.org/2000/svg" xmlns:xlink="http://www.w3.org/1999/xlink" xml:space="preserve" xmlns:serif="http://www.serif.com/" style="fill-rule:evenodd;clip-rule:evenodd;stroke-linejoin:round;stroke-miterlimit:2;"><path d="M137.425,222.997c-26.6,0 -52.038,-7.129 -73.55,-20.617l-17.846,28.471c26.871,16.842 58.475,25.742 91.396,25.742c33.025,0 64.708,-8.95 91.62,-25.883l-17.891,-28.442c-21.55,13.562 -47.042,20.729 -73.729,20.729" style="fill:currentColor;fill-rule:nonzero;"/><path d="M209.196,35.217c14.796,0 27.279,10.596 29.687,25.2c0.313,1.891 0.463,3.508 0.463,4.941c0,1.442 -0.15,3.059 -0.463,4.946l-0.183,1.646c-1.637,24.05 -12.275,46.204 -29.512,62.629c-17.309,-16.483 -27.951,-38.729 -29.53,-62.875l-0.175,-1.591c-0.291,-1.825 -0.429,-3.384 -0.429,-4.755c0,-1.366 0.138,-2.92 0.429,-4.746l-0.004,0c2.334,-14.716 14.829,-25.395 29.717,-25.395m-173.229,26.433c1.845,-15.071 14.687,-26.433 29.879,-26.433c15.325,0 28.191,11.471 29.925,26.683c0.129,1.138 0.221,2.288 0.221,3.458c0,1.18 -0.092,2.329 -0.221,3.475l-0.096,1.155c-1.179,24.92 -11.929,47.858 -29.804,64.766c-17.792,-16.833 -28.538,-39.65 -29.8,-64.433l-0.104,-1.225c-0.146,-1.229 -0.263,-2.467 -0.263,-3.738c0,-1.258 0.117,-2.491 0.263,-3.708m203.437,92.579c19.95,-21.554 32.163,-49.275 34.375,-79.083c0.525,-3.467 0.779,-6.675 0.779,-9.788c0,-3.358 -0.295,-6.829 -0.916,-10.612l-0.004,-0.021c-5.217,-31.713 -32.317,-54.725 -64.442,-54.725c-32.325,0 -59.454,23.183 -64.496,55.121l-0.008,0.012c-0.571,3.663 -0.854,7.004 -0.854,10.225c0,2.988 0.241,6.075 0.733,9.421c2.117,29.7 14.158,57.338 33.892,78.904c-12.759,4.688 -27.442,7.471 -41.013,7.471c-13.479,0 -28.062,-2.746 -40.758,-7.371c20.404,-22.212 32.546,-50.796 34.133,-81.566c0.254,-2.409 0.379,-4.659 0.379,-6.859c0,-2.375 -0.146,-4.812 -0.446,-7.446c-3.762,-33.016 -31.666,-57.912 -64.912,-57.912c-32.954,0 -60.829,24.662 -64.838,57.367l0,0.02c-0.35,2.875 -0.516,5.488 -0.516,7.971c0,2.309 0.146,4.717 0.441,7.354c1.709,30.821 14.034,59.45 34.63,81.617c-11.213,4.5 -23.23,6.825 -35.563,6.825l0,35.221c23.458,0 46.054,-6.208 66.067,-17.95c20.254,11.192 46.479,17.95 71.383,17.95c24.967,0 51.25,-6.792 71.538,-18.042c20.054,11.804 42.704,18.042 66.229,18.042l0,-35.221c-12.429,0 -24.529,-2.358 -35.813,-6.925" style="fill:currentColor;fill-rule:nonzero;"/></svg>
